<svg xmlns="http://www.w3.org/2000/svg" version="1.1" xmlns:xlink="http://www.w3.org/1999/xlink" xmlns:svgjs="http://svgjs.dev/svgjs" width="1500" height="1500" viewBox="0 0 1500 1500"><rect width="1500" height="1500" fill="#000000"></rect><g transform="matrix(0.6666666666666666,0,0,0.6666666666666666,248.7640843916244,262.43298182034016)"><svg viewBox="0 0 255 248" data-background-color="#3a3d53" preserveAspectRatio="xMidYMid meet" height="1458" width="1500" xmlns="http://www.w3.org/2000/svg" xmlns:xlink="http://www.w3.org/1999/xlink"><g id="tight-bounds" transform="matrix(1,0,0,1,0.31525749982958473,0.40002634420793015)"><svg viewBox="0 0 254.3695372904852 247.2" height="247.2" width="254.3695372904852"><g><svg viewBox="0 0 254.3695372904852 247.2" height="247.2" width="254.3695372904852"><g><svg viewBox="0 0 254.3695372904852 247.2" height="247.2" width="254.3695372904852"><g id="textblocktransform"><svg viewBox="0 0 254.3695372904852 247.2" height="247.2" width="254.3695372904852" id="textblock"><g><svg viewBox="0 0 254.3695372904852 247.2" height="247.2" width="254.3695372904852"><path d="M253.774 53.02C252.578 27.36 249.17 20.227 249.17 20.227 238.706-6.202 225.648-0.506 213.916 3.292 193.204 3.446 172.576 9.091 151.912 12.119 108.539 12.581 64.795 4.986 21.636 23.717 17.583 29.464-4.206 24.846 0.721 56.304 2.013 69.39 6.724 83.913 6.581 95.922 7.226 98.026 8.123 93.202 8.506 96.23 9.845 104.39 12.034 100.541 13.828 105.365 11.328 118.246 13.122 128.971 14.832 140.21 11.819 143.135 7.956 141.749 6.222 151.449 6.043 158.479 5.074 157.145 4.01 156.837 3.232 156.632 1.666 157.402 1.929 159.608 2.826 167.152-1.025 171.514 1.391 178.904-0.271 186.91 2.539 193.838 2.156 202.511 2.108 204.255 2.371 205.744 2.79 206.154 4.643 208.361 1.941 212.672 2.228 217.342 21.242 249.262 41.87 227.195 61.35 241.872 66.409 231.608 62.606 245.516 64.627 243.36 66.206 240.846 67.354 251.263 69.135 245.362 69.41 243.668 68.992 239.665 69.973 240.435 70.487 240.846 70.941 240.743 71.013 238.382 71.121 234.841 70.176 237.048 69.925 235.201 72.639 225.861 71.97 248.081 74.517 247.158 74.397 244.438 73.656 240.538 75.174 241.051 76.681 237.151 76.729 233.918 78.068 242.693 78.116 244.592 78.355 245.926 78.738 246.85 82.924 237.305 87.085 250.237 91.474 245.926 94.164 241.205 96.748 248.492 99.474 246.696 100.431 245.259 101.399 242.693 102.32 247.004 113.597 247.928 125.615 244.079 136.306 247.158 164.875 241.41 195.405 249.518 225.528 241.923 232.631 238.998 240.01 234.841 246.934 231.506 246.934 231.506 252.542 222.371 252.542 181.316S253.738 145.393 253.918 112.703C254.097 80.013 254.934 78.679 253.738 53.02Z" opacity="1" fill="#ffffff" data-fill-palette-color="tertiary"></path><g transform="matrix(1,0,0,1,55.76832,26.230666666666668)"><svg width="142.8328972904852" viewBox="2.3 -26.15 19.4 26.45" height="194.73866666666666" data-palette-color="#3a3d53"><path d="M12.35 0.3Q8.9 0.3 6.4-1.35 3.9-3 2.65-5.65L2.65-5.65Q2.3-6.35 2.3-6.75L2.3-6.75Q2.35-7.6 3.25-8.28 4.15-8.95 5.05-8.85L5.05-8.85Q5.55-8.75 5.83-8.47 6.1-8.2 6.6-7.55L6.6-7.55Q7.95-5.7 9.18-4.73 10.4-3.75 12.4-3.75L12.4-3.75Q14.25-3.75 15.5-4.65 16.75-5.55 16.75-6.9L16.75-6.9Q16.75-8.35 15.45-9.13 14.15-9.9 11.35-10.9L11.35-10.9Q8.75-11.75 7.1-12.58 5.45-13.4 4.28-14.88 3.1-16.35 3.1-18.65L3.1-18.65Q3.1-20.75 4.28-22.48 5.45-24.2 7.55-25.18 9.65-26.15 12.3-26.15L12.3-26.15Q15-26.15 17.05-25.13 19.1-24.1 20.2-22.4 21.3-20.7 21.3-18.7L21.3-18.7Q21.3-17.55 20.78-17.03 20.25-16.5 19.05-16.5L19.05-16.5Q17.85-16.5 17.45-16.93 17.05-17.35 17-18.05L17-18.05Q16.8-20 15.63-21.03 14.45-22.05 12.3-22.05L12.3-22.05Q10.05-22.05 9.03-21.03 8-20 8-18.75L8-18.75Q8-17.25 9.33-16.45 10.65-15.65 13.55-14.65L13.55-14.65Q16.15-13.75 17.78-12.95 19.4-12.15 20.55-10.73 21.7-9.3 21.7-7.05L21.7-7.05Q21.7-4.65 20.38-3 19.05-1.35 16.9-0.53 14.75 0.3 12.35 0.3L12.35 0.3Z" opacity="1" transform="matrix(1,0,0,1,0,0)" fill="#000000" class="wordmark-text-0" data-fill-palette-color="quaternary" id="text-0"></path></svg></g></svg></g></svg></g></svg></g><g></g></svg></g><defs></defs></svg><rect width="254.3695372904852" height="247.2" fill="none" stroke="none" visibility="hidden"></rect></g></svg></g></svg>